<!--?xml version="1.0" encoding="utf-8"?-->
<!-- Generator: Adobe Illustrator 18.1.1, SVG Export Plug-In . SVG Version: 6.00 Build 0)  -->

<svg version="1.1" id="_x31_0" xmlns="http://www.w3.org/2000/svg" xmlns:xlink="http://www.w3.org/1999/xlink" x="0px" y="0px" viewBox="0 0 512 512" style="width: 64px; height: 64px; opacity: 1;" xml:space="preserve">
<style type="text/css">
	.st0{fill:#374149;}
</style>
<g>
	<polygon class="st0" points="462.078,266.819 462.078,197.088 476.649,167.295 483.094,154.264 483.016,154.264 483.094,154.108 
		391.594,154.108 351.422,154.037 351.453,154.108 351.278,154.108 372.289,197.088 372.289,266.819 89.789,266.819 89.789,291.655 
		511.988,291.655 511.988,267.053 511.992,266.979 511.988,266.979 511.988,266.819 	" style="fill: rgba(37, 47, 209, 0.94);"></polygon>
	<path class="st0" d="M491.942,461.049V306.62H109.84v153.648v0.782H89.782v24.843H512v-24.531v-0.152v-0.16H491.942z
		 M155.691,327.944h290.402V371.9H155.691V327.944z M214.922,461.049h-60.175v-43.93h60.175V461.049z M330.981,461.049h-60.18
		v-43.93h60.18V461.049z M447.039,461.049h-60.18v-43.93h60.18V461.049z" style="fill: rgba(37, 47, 209, 0.94);"></path>
	<path class="st0" d="M502.918,92.959H330.981v51.582h171.937V92.959z M378.035,129.756H355.11v-21.981h22.926V129.756z" style="fill: rgba(37, 47, 209, 0.94);"></path>
	<polygon class="st0" points="462.078,26.424 462.078,26.268 462.078,26.108 446.078,26.108 446.078,77.69 462.078,77.69 	" style="fill: rgba(37, 47, 209, 0.94);"></polygon>
	<path class="st0" d="M164.703,125.924c1.813-0.152,51.351-1.957,55.164-2.554c3.652-0.574,7.82-3.34,8.187-6.816
		c0.219-2.055-0.961-3.895-3.007-4.676l-14.254-4.824l-6.774-2.375l12.934-11.61l5.203-4.586l-0.062-0.027l0.129-0.118
		l-19.855-9.211L172.23,92.541L140.054,79.62l-29.82-12.141l7.238,2.316l29.098-15.206l20.871-10.778l-0.157-0.047l0.203-0.106
		l-22.781-6.914c-1.016-0.328-2.082-0.477-3.176-0.446c-1.043,0.027-2.058,0.223-3.015,0.574L75.953,53.869L39.398,38.264
		C21.137,32.342,0.023,40.959,0,48.424c-0.023,6.511,6.539,18.746,24.703,25.734l139.266,51.825L164.703,125.924z" style="fill: rgba(37, 47, 209, 0.94);"></path>
	<path class="st0" d="M91.118,169.6c0.461,1.066,1.113,2.024,1.934,2.844c0.863,0.859,1.867,1.527,2.992,1.988l24.855,10.692
		l-16.875-63.063l-28.605-11.73l-22.114-9.203l0.094,0.176l-0.234-0.098L91.118,169.6z" style="fill: rgba(37, 47, 209, 0.94);"></path>
</g>
</svg>
